<svg xmlns="http://www.w3.org/2000/svg" viewBox="0 0 64 64"><title>bar-graph-arrow-up</title><g id="bar-graph-arrow-up"><rect x="16" y="56" width="6" height="6" fill="#ff504d"/><rect x="26" y="46" width="6" height="16" fill="#ffcb47"/><rect x="36" y="36" width="6" height="26" fill="#00c9e0"/><rect x="46" y="26" width="6" height="36" fill="#ff504d"/><rect x="56" y="16" width="6" height="46" fill="#ffcb47"/><circle cx="5" cy="30" r="3" fill="#e6e6e6"/><circle cx="14" cy="15" r="3" fill="#e6e6e6"/><circle cx="25" cy="24" r="3" fill="#e6e6e6"/><circle cx="35" cy="5" r="3" fill="#e6e6e6"/><polyline points="1 62 12 62 12 52 22 52 22 42 32 42 32 32 42 32 42 22 52 22 52 12 58 12 58 3" fill="none" stroke="#3e3948" stroke-miterlimit="10" stroke-width="2"/><polyline points="54 7 58 3 62 7" fill="none" stroke="#3e3948" stroke-miterlimit="10" stroke-width="2"/><rect x="16" y="56" width="6" height="6" fill="none" stroke="#3e3948" stroke-miterlimit="10" stroke-width="2"/><rect x="26" y="46" width="6" height="16" fill="none" stroke="#3e3948" stroke-miterlimit="10" stroke-width="2"/><rect x="36" y="36" width="6" height="26" fill="none" stroke="#3e3948" stroke-miterlimit="10" stroke-width="2"/><rect x="46" y="26" width="6" height="36" fill="none" stroke="#3e3948" stroke-miterlimit="10" stroke-width="2"/><rect x="56" y="16" width="6" height="46" fill="none" stroke="#3e3948" stroke-miterlimit="10" stroke-width="2"/><circle cx="5" cy="30" r="3" fill="none" stroke="#3e3948" stroke-miterlimit="10" stroke-width="2"/><circle cx="14" cy="15" r="3" fill="none" stroke="#3e3948" stroke-miterlimit="10" stroke-width="2"/><circle cx="25" cy="24" r="3" fill="none" stroke="#3e3948" stroke-miterlimit="10" stroke-width="2"/><circle cx="35" cy="5" r="3" fill="none" stroke="#3e3948" stroke-miterlimit="10" stroke-width="2"/><line x1="6" y1="27" x2="12" y2="17" fill="none" stroke="#3e3948" stroke-miterlimit="10" stroke-width="2"/><line x1="16" y1="17" x2="23" y2="22" fill="none" stroke="#3e3948" stroke-miterlimit="10" stroke-width="2"/><line x1="26" y1="22" x2="34" y2="7" fill="none" stroke="#3e3948" stroke-miterlimit="10" stroke-width="2"/></g></svg>